<svg xmlns="http://www.w3.org/2000/svg" viewBox="0 0 842.11 463.06"><defs><style>.cls-1{fill:#407ec9;}.cls-2{font-size:48px;font-family:Aileron-SemiBold, Aileron;font-weight:600;}.cls-3{letter-spacing:-0.05em;}.cls-4{letter-spacing:0em;}.cls-5{fill:none;stroke:#757575;stroke-miterlimit:10;}.cls-6{font-size:30px;fill:#9b9b9b;font-family:Aileron-Light, Aileron;font-weight:300;}.cls-7{letter-spacing:-0.01em;}</style></defs><g id="Capa_2" data-name="Capa 2"><g id="Capa_1-2" data-name="Capa 1"><path class="cls-1" d="M774.84,44.37V264.53h-50V44.37H654.27L596.39,0H842.11V44.37Z"/><path class="cls-1" d="M117.09,158.77v26.68q0,18.57-9.66,27.47T83,221.84q-15.54,0-24.44-8.94T46.23,187.57L0,196.68q5.69,30.67,26.14,49.24t57.22,18.57q19.33,0,34.86-5.47a75.93,75.93,0,0,0,26.34-15.31A67,67,0,0,0,161.23,220a74.74,74.74,0,0,0,5.51-22.62c.24-2.72.37-5.51.37-8.36V158.77h-50Z"/><polygon class="cls-1" points="117.09 105.72 167.1 105.72 224.04 105.72 224.04 64.8 167.1 64.8 167.1 0 33.72 0 33.72 40.92 117.09 40.92 117.09 105.72"/><path class="cls-1" d="M451,264.49h44.85A31.52,31.52,0,0,0,527.41,233l0-29.88h-50v17.08H292.11v44.34Z"/><path class="cls-1" d="M419.26,74.46q-8.14-24.82-23.11-41.31a95.47,95.47,0,0,0-36-24.81Q339.12,0,313.35,0H217.11V105.72h50V44.33h46.22q28,0,44.53,16.49t16.48,50.58v41.68q0,34.11-16.48,50.59t-44.53,16.48H267.13V158.77h-50V264.49h96.24q25.77,0,46.8-8.34a95.38,95.38,0,0,0,36-24.82q15-16.49,23.11-41.3t8.15-57.79Q427.41,99.27,419.26,74.46Z"/><text class="cls-2" transform="translate(152.59 365.91)">Juan David Parra <tspan class="cls-3" x="385.39" y="0">T</tspan><tspan class="cls-4" x="412.41" y="0">riviño</tspan></text><polyline class="cls-5" points="748.24 401.07 748.24 401.07 83.55 401.07"/><text class="cls-6" transform="translate(262.63 456.37)">Au<tspan class="cls-7" x="35.91" y="0">t</tspan><tspan x="44.19" y="0">omatization Engineer</tspan></text><path class="cls-1" d="M669.52,48.5a71.66,71.66,0,0,0-15.53-26A69.59,69.59,0,0,0,629.17,5.87,87.22,87.22,0,0,0,596.39,0h-119V61.57h50v-18h64.41q14.4,0,22.74,7.57t8.33,22V90.56q0,14.41-8.33,22.17t-22.74,7.77H527.43v-18h-50v162l50-31.54,0-69.25h69a87,87,0,0,0,32.78-5.88A69.33,69.33,0,0,0,654,141.15a71.87,71.87,0,0,0,15.53-25.77,99.74,99.74,0,0,0,5.31-33.53A100.3,100.3,0,0,0,669.52,48.5Z"/></g></g></svg>